<svg width="16" height="13" viewBox="0 0 16 13" fill="none" xmlns="http://www.w3.org/2000/svg">
<path d="M8.25008 0.333332C10.8274 0.333332 12.9167 2.42267 12.9167 5C12.9167 5.07567 12.9149 5.15093 12.9114 5.22571C14.4677 5.77333 15.5834 7.2564 15.5834 9C15.5834 11.2091 13.7925 13 11.5834 13H4.91675C2.70761 13 0.916748 11.2091 0.916748 9C0.916748 7.2564 2.03239 5.77333 3.58877 5.22571C3.58521 5.15093 3.58341 5.07567 3.58341 5C3.58341 2.42267 5.67275 0.333332 8.25008 0.333332ZM8.25008 1.66667C6.40913 1.66667 4.91675 3.15905 4.91675 5C4.91675 5.05431 4.91804 5.10842 4.9206 5.16229L4.96783 6.15393L4.0313 6.48347C2.97301 6.8558 2.25008 7.85927 2.25008 9C2.25008 10.4727 3.44399 11.6667 4.91675 11.6667H11.5834C13.0561 11.6667 14.2501 10.4727 14.2501 9C14.2501 7.52667 13.0567 6.33333 11.5834 6.33333C10.4054 6.33333 9.40588 7.09713 9.05288 8.15647L7.78768 7.73473C8.31708 6.14567 9.81675 5 11.5834 5C11.5834 3.15905 10.091 1.66667 8.25008 1.66667Z" fill="#A0A0A0"/>
</svg>
